<?xml version="1.0" ?>
<svg xmlns="http://www.w3.org/2000/svg" viewBox="0 0 312 313">
	<path d="M 163 161 L 162 162 L 162 303 L 163 304 L 164 304 L 165 305 L 281 305 L 282 304 L 285 304 L 286 303 L 288 303 L 289 302 L 290 302 L 291 301 L 292 301 L 300 293 L 300 292 L 301 291 L 301 290 L 302 289 L 302 288 L 303 287 L 303 285 L 304 284 L 304 248 L 305 247 L 305 238 L 304 237 L 304 163 L 302 161 Z" fill="#3DB1FF"/>
	<path d="M 8 161 L 7 162 L 7 163 L 6 164 L 6 282 L 7 283 L 7 287 L 8 288 L 8 289 L 9 290 L 9 291 L 11 293 L 11 294 L 17 300 L 18 300 L 19 301 L 20 301 L 21 302 L 22 302 L 23 303 L 24 303 L 25 304 L 38 304 L 39 305 L 119 305 L 120 304 L 149 304 L 150 303 L 150 263 L 151 262 L 151 249 L 150 248 L 150 213 L 151 212 L 151 202 L 150 201 L 150 162 L 149 162 L 148 161 Z" fill="#3DB1FF"/>
	<path d="M 164 8 L 163 9 L 162 9 L 162 151 L 163 151 L 164 152 L 303 152 L 304 151 L 304 30 L 303 29 L 303 26 L 302 25 L 302 24 L 301 23 L 301 22 L 300 21 L 300 20 L 298 18 L 298 17 L 296 15 L 295 15 L 292 12 L 291 12 L 289 10 L 287 10 L 286 9 L 283 9 L 282 8 Z" fill="#3DB1FF"/>
	<path d="M 29 8 L 28 9 L 23 9 L 22 10 L 18 10 L 15 13 L 14 13 L 9 18 L 9 19 L 8 20 L 8 23 L 7 24 L 7 37 L 6 38 L 6 150 L 8 152 L 149 152 L 150 151 L 150 9 L 149 9 L 148 8 Z" fill="#3DB1FF"/>
</svg>
